<svg t="1618060712673" class="icon" viewBox="0 0 1024 1024" version="1.1" xmlns="http://www.w3.org/2000/svg" p-id="1164" width="200" height="200"><path d="M700.75 857.16h-369.5a12 12 0 0 1-10.39-6l-184.76-320a12 12 0 0 1 0-12l184.76-320a12 12 0 0 1 10.39-6h369.5a12 12 0 0 1 10.39 6l184.76 320a12 12 0 0 1 0 12l-184.76 320a12 12 0 0 1-10.39 6z m-362.57-24h355.64l177.83-308-177.83-308H338.18l-177.83 308z" p-id="1165" fill="#ffffff"></path><path d="M516 667.16c-78.3 0-142-63.7-142-142s63.7-142 142-142 142 63.7 142 142-63.7 142-142 142z m0-260a118 118 0 1 0 118 118 118.13 118.13 0 0 0-118-118z" p-id="1166" fill="#ffffff"></path></svg>